<?xml version="1.0" encoding="UTF-8"?><svg id="a" xmlns="http://www.w3.org/2000/svg" width="600" height="600" viewBox="0 0 600 600"><path d="m350.33,462.8c33.14-11.79,100.85-23.69,100.85-23.69,0,0,10.04,1.75,31.64-17.23,0,0,3.78,5.38,1.31,11.49-2.47,6.11-11.56,59.85-119.13,49.81-2.58-.24-4.98-.49-7.21-.77-1.38-.15-2.69-.32-3.94-.5-20.54-2.85-24.61-6.97-19.18-11.54,2.88-2.44,8.45-5,15.66-7.57Z" style="fill:#9d9096;"/><path d="m467.81,368.75c.83,4.65,1.26,9.45,1.26,14.35,0,8.88-1.42,17.43-4.05,25.43.02-.35-.07-.76-.25-.98-.99-1.17-2.07-2.26-3.03-3.27,2.46-12.63,3.16-17.03,2.38-34.78.64-1.14,2.74-.33,3.69-.75Z" style="fill:#9e9197;"/><path d="m464.12,369.49c-.13.21-.2.5-.2.89-.06-.82-.4-1.4-.88-1.92,1.85-4.45,2.75-7.37,2.9-7.85.35,1.26.68,2.53.99,3.81.24,1.06.47,2.11.67,3.19.07.37.15.77.21,1.15-.96.41-3.05-.39-3.69.75Z" style="fill:#10152e;"/><path d="m466.93,364.41c.29,1.1.47,2.09.67,3.19-.2-1.08-.43-2.13-.67-3.19Z" style="fill:#10152e;"/><path d="m465.94,360.59c-1.44-5.02-3.35-9.86-5.68-14.44,2.9,5.68,5.06,11.03,6.66,18.25-.3-1.28-.63-2.55-.99-3.81h0Z" style="fill:#10152e;"/><path d="m432.4,325.91c1.62-.22,3.42-.38,5.18-.73,5.57-1.13,6.36-1.1,10.2,2.89.03.04.06.07.09.1,4.38,4.83,8.2,10.19,11.34,15.97.36.66.71,1.35,1.06,2.02,2.33,4.58,4.24,9.41,5.68,14.44h0c-.15.49-1.05,3.41-2.9,7.86-.27-.3-.59-.57-.93-.87-5.25-4.52-10.4-9.13-15.56-13.74-.06-.05-.12-.11-.18-.16-.36-.32-.59-.82-.81-1.27-3.59-7.63-7.17-15.27-10.75-22.9-.68-1.47-1.26-3.05-2.66-3.57l.24-.03Z" style="fill:#10152e;"/><path d="m429.92,447.57c5.26-3.95,7.79-9.8,10.03-15.76,1.16-3.09,1.8-6.38,2.67-9.58.26-.96.4-1.88-.4-2.75.04.03.08.06.12.08,1.29.99,2.43.12,3.59-.38,6.03-2.58,10.8-6.65,14.38-12.12.6-.92.99-1.97,1.41-2.81l.03.03c.96,1.02,2.04,2.1,3.03,3.27.18.22.27.62.25.98-5.23,16.01-15.26,29.83-28.4,39.78-.49.21-.98.21-1.69.11-1.81-.27-3.64-.36-5.44-.52.14-.1.28-.2.42-.32Z" style="fill:#10152e;"/><path d="m465.03,408.52c0,.13-.02.25-.05.35-1.65,4.63-3.35,9.25-5.89,13.5-2.67,5.03-5.78,9.7-9.62,13.84-3.37,4.22-7.18,7.61-11.62,11.25-.48.41-.86.68-1.22.84,13.14-9.95,23.18-23.77,28.4-39.78Z" style="fill:#10152e;"/><path d="m463.92,370.38c0-.38.07-.67.2-.89.79,17.75.08,22.16-2.38,34.78l-.03-.03c-.42.84-.81,1.89-1.41,2.81-3.57,5.47-8.35,9.54-14.38,12.12-1.17.5-2.31,1.37-3.59.38-2.06-2.31-4.92-5.46-7.97-8.54,15.68-15.01,24.55-32.61,28.68-42.57.47.52.82,1.11.88,1.92Z" style="fill:#665a6a;"/><path d="m462.12,367.59c.33.29.65.56.93.87-4.14,9.96-13.01,27.56-28.68,42.57-3-3.04-6.18-6.01-8.95-8.04.04-.02.09-.04.13-.05,0-.87-.02-1.94,0-3.02.1-6.72.21-13.44.3-20.17.03-2.49-.05-4.97.03-7.45.02-.68.16-1.37.3-1.99,4.1-3.3,14.26-11.34,20.38-16.45,5.16,4.61,10.32,9.22,15.56,13.74Z" style="fill:#d4d0cd;"/><path d="m447.87,328.16c5.32,4.54,8.28,10.19,11.34,15.97-3.14-5.78-6.96-11.14-11.34-15.97Z" style="fill:#10152e;"/><path d="m446.37,353.68c.06.05.12.11.18.16-6.12,5.11-16.28,13.15-20.38,16.45.07-.31.13-.6.18-.89-.91.94-2.1.43-3.39-.06-8.62-3.3-17.25-6.59-25.89-9.81-1.44-.53-2.77-1.08-3.6-2.35-4.89-16.09-6.38-20.43-10.4-26.34,1.04-.41,1.99-1.03,2.9-1.88,2.53-2.39,5.13-4.7,7.75-7.01,2.71-2.39,5.48-4.73,8.03-6.94,19.51,3.88,19.53,4.52,30.65,10.87l-.24.03c1.4.52,1.97,2.1,2.66,3.57,3.58,7.63,7.16,15.27,10.75,22.9.21.45.44.95.81,1.27Z" style="fill:#faf7f8;"/><path d="m410.66,304.73c14.45,4.29,27.23,12.47,37.12,23.33-3.84-3.99-4.63-4.02-10.2-2.89-1.76.35-3.56.51-5.18.73-11.11-6.35-11.14-7-30.65-10.87.04-.05.09-.08.13-.12-1.15-.8-2.44-1.55-3.56-2.51-2.86-2.46-5.69-4.95-8.49-7.48,12.71-1.64,20.83-.19,20.83-.19Z" style="fill:#faf7f8;"/><path d="m442.21,419.48c.81.87.66,1.79.4,2.75-.87,3.2-1.51,6.49-2.67,9.58-2.24,5.96-4.77,11.81-10.03,15.76-8.28,3.29-22.75,7.2-29.48,8.88-.68-.28-1.69-.61-2.51-1.2-6.23-4.42-12.4-8.91-18.62-13.36-.31-.23-.73-.44-1.11-.45.59-.95,1.52-2.44,2.62-4.31,23.21-3.2,40.66-13.78,53.53-26.11,3.05,3.08,5.91,6.23,7.97,8.54-.04-.02-.08-.05-.12-.08Z" style="fill:#665a6a;"/><path d="m434.93,448.41c.71.1,1.2.1,1.69-.11-13.7,10.38-30.79,16.54-49.3,16.54-.85,0-1.68-.01-2.53-.05.81-.08,1.61-.3,2.28-.65,4.73-2.51,9.37-5.2,13.62-7.59-.08-.03-.16-.07-.25-.1,6.73-1.68,21.2-5.59,29.48-8.88-.14.12-.28.22-.42.32,1.79.16,3.62.25,5.44.52Z" style="fill:#322736;"/><path d="m391.81,414.37c-3.54-4.36-7.2-8.88-10.86-13.37-2.63-3.23-5.34-6.39-7.92-9.66-.96-1.21-1.93-2.27-3.5-2.54-.33-.05-.68-.07-1.07-.05h-.02c.24-.18.29-.26.33-.25,2.03.42,3.03-.78,4.14-2.28,6.17-8.34,12.46-16.57,18.71-24.85,1.02-1.36,2.22-2.69,1.65-4.53.06.12.12.23.2.34.84,1.27,2.16,1.81,3.6,2.35,8.65,3.21,17.28,6.5,25.89,9.81,1.29.49,2.49,1,3.39.06-.05.28-.11.57-.18.89-.14.62-.28,1.31-.3,1.99-.08,2.48,0,4.96-.03,7.45-.09,6.73-.2,13.45-.3,20.17-.02,1.08,0,2.15,0,3.02-.04.01-.09.03-.13.05-11.05,3.83-22.19,7.69-33.45,11.58l-.15-.18Z" style="fill:#10152e;"/><path d="m425.41,402.98c2.77,2.03,5.95,5,8.95,8.04-12.87,12.32-30.32,22.9-53.53,26.11,3.25-5.5,8.07-14.34,10.98-22.75l.15.18c11.26-3.89,22.39-7.75,33.45-11.58Z" style="fill:#d4d0cd;"/><path d="m410.66,304.73s-8.12-1.45-20.83.19c-.18-.16-.35-.31-.52-.47-1.38-1.23-3.16-2.9-5.04-3.04,1.02-.05,2.03-.07,3.06-.07,8.11,0,15.95,1.18,23.34,3.39Z" style="fill:#d0cdd5;"/><path d="m383.06,330.86c-1.34.53-2.8.7-4.44.57-7.19-.55-14.39-.91-21.59-1.31-2.19-.13-4.4-.17-6.6-.28-.38-.02-.61-.16-.77-.28-.28-.23-.3-.39-.48.33.23-3.94-.22-7.23-.28-10.88,15.54-8.96,29.95-12.68,40.93-14.08,2.8,2.53,5.63,5.02,8.49,7.48,1.13.96,2.42,1.71,3.56,2.51-.04.04-.09.07-.13.12-2.56,2.2-5.33,4.55-8.03,6.94-2.62,2.31-5.23,4.62-7.75,7.01-.91.86-1.86,1.47-2.9,1.88Z" style="fill:#10152e;"/><path d="m347.2,440.89c1.88.08,3.84.21,5.78.24,8.4.11,16.8.18,25.21.3h.02c.37.01.8.22,1.11.45,6.21,4.45,12.38,8.94,18.62,13.36.82.58,1.82.92,2.51,1.2.09.03.17.07.25.1-4.25,2.4-8.89,5.08-13.62,7.59-.66.35-1.47.57-2.28.65-13.27-.39-25.75-3.96-36.71-9.97-.8-.87-1.14-1.98-1.11-3.4.05-2.72.01-5.44,0-8.15v-2.39c.07,0,.15.01.22.01Z" style="fill:#10152e;"/><path d="m393.46,357.2c-.08-.11-.14-.22-.2-.34-.07-.25-.18-.5-.33-.78.09.28.2.54.33.78.57,1.84-.63,3.17-1.65,4.53-6.24,8.28-12.53,16.51-18.71,24.85-1.11,1.5-2.1,2.7-4.14,2.28-.04-.01-.09.07-.33.25-24.11-1.28-29.16-2.38-29.16-2.38.1-.25,0-.66-.14-.94l-8.72-25.02c-.62-1.86-1.37-3.68-2.08-5.58,9.01-13.72,12.28-17.52,21.33-25.29.15.12.38.26.77.28,2.2.11,4.41.15,6.6.28,7.2.4,14.4.76,21.59,1.31,1.64.13,3.1-.04,4.44-.57,4.02,5.91,5.51,10.25,10.4,26.34Z" style="fill:#faf7f8;"/><path d="m392.93,356.08c.15.27.26.52.33.78-.13-.23-.24-.49-.33-.78Z" style="fill:#10152e;"/><path d="m389.31,304.45c.17.16.34.31.52.47-10.97,1.41-25.38,5.12-40.93,14.08-.03-1.04-.02-2.11.04-3.24,0-.12.01-.24,0-.36-.12-1.67-.09-3.52.65-4.85,10.43-5.45,22.19-8.7,34.66-9.14,1.88.14,3.66,1.81,5.04,3.04Z" style="fill:#10152e;"/><path d="m391.81,414.37c-2.91,8.42-7.73,17.26-10.98,22.75-11.08,1.54-23.48,1.39-37.3-1.08-7.4-9.94-12.42-17.78-15.08-22.15.02.01.05.02.07.03.15-.47.26-.92.43-1.35.59-1.48,1.23-2.95,1.81-4.44,2.85-7.24,5.7-14.5,8.52-21.76,0,0,5.04,1.1,29.16,2.38h.02c.35.02.7.04,1.07.05,1.57.27,2.55,1.33,3.5,2.54,2.59,3.26,5.3,6.42,7.92,9.66,3.66,4.49,7.32,9.01,10.86,13.37Z" style="fill:#d4d0cd;"/><path d="m384.8,464.79c-.48.06-.98.06-1.44.03-3.87-.23-6.92-.66-10.34-1.2-8.09-1.26-15.33-3.98-23.08-7.55-.79-.33-1.4-.75-1.85-1.25,10.95,6.01,23.44,9.57,36.71,9.97Z" style="fill:#10152e;"/><path d="m384.2,301.4s.04,0,.06.01c-12.47.44-24.23,3.69-34.66,9.14.33-.61.83-1.12,1.52-1.45.22-3.29,14.79-6.71,23.76-7.78,2.44-.3,2.88-.28,9.32.08Z" style="fill:#10152e;"/><path d="m380.83,437.13c-1.1,1.87-2.02,3.36-2.62,4.31h-.02c-8.41-.12-16.81-.19-25.21-.3-1.94-.03-3.9-.16-5.78-.24-1.29-1.66-2.51-3.28-3.67-4.84,13.82,2.47,26.22,2.62,37.3,1.08Z" style="fill:#322736;"/><path d="m369.52,388.81c-.36-.01-.71-.03-1.07-.05.38-.02.73,0,1.07.05Z" style="fill:#fff;"/><path d="m349.19,329.89c.18-.72.2-.56.48-.33-9.05,7.77-12.32,11.57-21.33,25.29-.02-.04-.03-.09-.05-.13-1.1.68-1.94,1.29-2.85,1.77-5.7,2.99-11.42,5.94-17.12,8.94-.28.15-.75.47-1,.79,1.23-5.89,3.1-11.54,5.52-16.88h.01c12.01-13.9,24.35-23.6,36.05-30.32.06,3.65.51,6.95.28,10.88Z" style="fill:#faf7f8;"/><path d="m348.94,315.41c.01.12,0,.24,0,.36-.06,1.13-.07,2.2-.04,3.24-11.7,6.73-24.04,16.42-36.05,30.32h-.01c7.57-16.67,20.58-30.35,36.76-38.78-.75,1.33-.78,3.18-.65,4.85Z" style="fill:#d0cdd5;"/><path d="m347.2,440.89c-.07,0-.15-.01-.22-.01v2.39c.01,2.72.05,5.44,0,8.15-.03,1.42.31,2.54,1.11,3.4-10.97-6.01-20.42-14.47-27.6-24.64,8.08,2.66,15.77,4.58,23.04,5.86,1.17,1.56,2.39,3.18,3.67,4.84Z" style="fill:#322736;"/><path d="m328.33,354.85c.71,1.89,1.46,3.72,2.08,5.58l8.72,25.02c.14.27.24.68.14.94-2.82,7.26-5.67,14.52-8.52,21.76-.58,1.49-1.22,2.96-1.81,4.44-.17.43-.28.88-.43,1.35-.02-.01-.05-.02-.07-.03-4.45-1.88-8.12-5.03-12.1-7.72-2.49-1.67-4.9-3.45-7.37-5.17-.84-.58-1.52-1.36-1.9-2.29-.99-5.05-1.5-10.28-1.5-15.63,0-2.6.12-5.16.36-7.7.02-.23.04-.45.06-.67.29-2.88.73-5.72,1.33-8.5.25-.31.71-.63,1-.79,5.7-3,11.42-5.95,17.12-8.94.91-.48,1.75-1.09,2.85-1.77.02.04.03.09.05.13Z" style="fill:#10152e;"/><path d="m328.45,413.9c2.66,4.37,7.68,12.21,15.08,22.15-7.27-1.28-14.95-3.2-23.04-5.86-6.53-9.26-11.2-19.93-13.42-31.47.38.93,1.07,1.7,1.9,2.29,2.47,1.72,4.88,3.5,7.37,5.17,3.98,2.69,7.65,5.84,12.1,7.72Z" style="fill:#d4d0cd;"/><path d="m307.14,366.56c.02-.11.08-.22.18-.34-.59,2.78-1.04,5.62-1.33,8.5.29-3.27.72-5.37,1.15-8.15Z" style="fill:#10152e;"/><path d="m307.07,398.72c-.1-.22-.18-.44-.24-.68-1.9-7.5-1.81-15.05-.9-22.64-.24,2.54-.36,5.1-.36,7.7,0,5.35.51,10.57,1.5,15.63Z" style="fill:#10152e;"/><path d="m325.57,359.09c.98-1.51,1.9-2.92,2.77-4.24,9.01-13.72,12.28-17.52,21.33-25.29.65-.56,1.34-1.15,2.06-1.76" style="fill:none; stroke:#191915; stroke-miterlimit:10; stroke-width:.25px;"/><path d="m368.46,388.76c.35.02.7.04,1.07.05,1.59.09,3.25.17,5,.25" style="fill:none; stroke:#191915; stroke-miterlimit:10; stroke-width:.25px;"/><path d="m339.28,386.38s5.04,1.1,29.16,2.38" style="fill:none; stroke:#191915; stroke-miterlimit:10; stroke-width:.25px;"/><path d="m378.44,324.54c1.89,2.52,3.38,4.5,4.62,6.32,4.02,5.91,5.51,10.25,10.4,26.34.82,2.66,1.71,5.65,2.74,9.01" style="fill:none; stroke:#191915; stroke-miterlimit:10; stroke-width:.25px;"/><path d="m326.18,410.06s.76,1.36,2.27,3.84c2.66,4.37,7.68,12.21,15.08,22.15,1.17,1.56,2.39,3.18,3.67,4.84.15.2.31.4.47.61" style="fill:none; stroke:#191915; stroke-miterlimit:10; stroke-width:.25px;"/><path d="m377.45,442.62s.27-.42.77-1.19c.59-.95,1.52-2.44,2.62-4.31,3.25-5.5,8.07-14.34,10.98-22.75.5-1.46.95-2.9,1.32-4.31" style="fill:none; stroke:#191915; stroke-miterlimit:10; stroke-width:.25px;"/><path d="m397.4,457.18c.61-.13,1.66-.38,3.04-.73,6.73-1.68,21.2-5.59,29.48-8.88,2.91-1.16,5.04-2.24,5.82-3.12" style="fill:none; stroke:#191915; stroke-miterlimit:10; stroke-width:.25px;"/><path d="m445.45,423.11c-.2-.21-1.37-1.58-3.12-3.55-2.06-2.31-4.92-5.46-7.97-8.54-3-3.04-6.18-6.01-8.95-8.04-1.88-1.39-3.56-2.34-4.87-2.59" style="fill:none; stroke:#191915; stroke-miterlimit:10; stroke-width:.25px;"/><path d="m464.04,367.8c.03.57.05,1.14.08,1.69.79,17.75.08,22.16-2.38,34.78-.29,1.49-.6,3.1-.95,4.86" style="fill:none; stroke:#191915; stroke-miterlimit:10; stroke-width:.25px;"/><path d="m424.45,371.72c.21-.19.82-.68,1.72-1.42,4.1-3.3,14.26-11.34,20.38-16.45,3.06-2.54,5.11-4.36,4.9-4.51" style="fill:none; stroke:#191915; stroke-miterlimit:10; stroke-width:.25px;"/><path d="m435.74,327.8c-1.22-.68-2.33-1.31-3.34-1.89-11.11-6.35-11.14-7-30.65-10.87-.19-.04-.38-.08-.58-.12" style="fill:none; stroke:#191915; stroke-miterlimit:10; stroke-width:.25px;"/><path d="m328.62,353.7c.06.09.14.18.21.27l-12.41,32.03s-11.17,23.2-8.36,37.08c-.27-.71-4.77-12.56-4.44-19.76.27-1.66.48-2.72.51-2.9-.3.82-.46,1.81-.51,2.9-1.16,7.09-3.45,25.21,1.69,33.02,6.47,9.81,0,1.23,0,1.23,0,0-5.12-3.23-7.62-9h-.01c-7.1-29.6,3.18-57.69,3.18-57.69-9.76-4.02-16.4-14.39-20.82-28.14-15.77-48.96-3.4-140.73-3.4-140.73,0,0,0-52.58-32.72-46.25,0,0,19.25-18.87,42.33,5.47,1.24,1.7,2.62,3.31,4.14,4.78,0,0,2.41-4.93,5.96-11.78,0,0,25.68-24.66,33.09-19.64,7.42,5.02,1.31,5.67,14.84,12.87,0,0-.01,0-.02-.04-.51-1.17-12.38-28.94-.85-62.57,0,0-7.09,33.06,14.89,42.93l2.13-1.24c1.77,2.95,4.08,8.23,6.18,9.58,13.35,8.54,20.39,14.17,23.68,17.07,1.07,2.49,3.3,4.25,5.71,6.78,4.39,4.64,6.76,4.58,10.11,19.71,2.16,9.78,2.17,17.02,7.41,22.25,5.23,5.24,42.11,38.36,53.89,42.09,2.02.64,2.7,2.11,2.41,4.12h0c-.03.2-.06.39-.11.59-.1-.1-.68-.71-.98-.84-4.23-1.79-25.13-10.77-61.18-28.21,0,0-65.83-24.63-96.91,66.16-1.88,5.51-3.64,11.45-5.25,17.84l.31.17c-.53.91-.95,1.87-1.27,2.86,0,0-4.7,12.38,1.25,19.58,0,0,4.98-8.01,9.8-8.65,0,0-1.48,18.04,13.14,36.06Z" style="fill:#4e5174;"/><path d="m372.32,279.73c-11.43-4.03-39.72-11.25-61.68,6.11,31.08-90.79,96.91-66.16,96.91-66.16,36.05,17.44,56.95,26.42,61.18,28.21.3.13.88.74.98.84v.02c-2.5,1.38-3.29,5.17-7.77,6.5-1.13.33-2.83-1.31-4.8-2.35-3.03-1.6-3.61-2.13-12.66-5.29-11.79-4.13-13.68-1.04-13.68-1.04,0,0,.27,8.63,3.05,15.46h-.01s-3.74,12.13-21.49,5.51h-.01c-3.58-2.89-7.3-6.39-11.04-10.63-19.64-22.25-45.45-15.65-51.02-14.4-3.02.68-3.59.95-2.29,4.6,1.82,5.08,6.46,17.29,16.07,26.22,4.51,2.82,8.86,5.71,13.35,8.42-.3-.14-2.13-.97-5.09-2.02Z" style="fill:#cdc7d3;"/><path d="m433.28,488.77l33.71.69c-.42.16-32.73,29.13-120,20.09,0,0,22.4-8.16,33.74-13.11,11.35-4.94,31.6-9.43,52.55-7.67Z" style="fill:#796b7a;"/><path d="m461.94,255.25c4.48-1.33,5.27-5.12,7.77-6.5-1.38,6.15-10.59,16.58-17.94,23.8h0c-.3.07-5.79,1.2-13-3.67-2.18-1.47-3.76-4.01-4.91-6.85-2.78-6.83-3.05-15.46-3.05-15.46,0,0,1.89-3.09,13.68,1.04,9.05,3.16,9.63,3.69,12.66,5.29,1.97,1.04,3.67,2.68,4.8,2.35Z" style="fill:#39426a;"/><path d="m440.93,280.57c-.23-.01-.49-.02-.76-.04-4.8-.39-15.53-3.08-27.82-12.99,17.75,6.62,21.49-5.51,21.49-5.51h.01c1.15,2.84,2.73,5.38,4.91,6.85,7.21,4.87,12.7,3.74,13,3.67-2.34,2.3-4.49,4.27-6.14,5.67-1.57,1.34-2.69,2.16-3.09,2.26-.31.08-.86.12-1.6.09Z" style="fill:#b7b1bb;"/><path d="m440.17,280.53c.27.02.53.03.76.04-.54.52-1.04,1-1.05,1-.22.23-13.97,15.56-17.48,16.28,0,0,5.05-4.68-23.99-8.68-3.92-.54-10.68-2.57-17.62-5.46-1.13-.63-2.24-1.28-3.34-1.94,0,0-.03-.02-.04-.02-4.49-2.71-8.84-5.6-13.35-8.42-9.61-8.93-14.25-21.14-16.07-26.22-1.3-3.65-.73-3.92,2.29-4.6,5.57-1.25,31.38-7.85,51.02,14.4,3.74,4.24,7.46,7.74,11.04,10.63h.01c12.29,9.91,23.02,12.6,27.82,12.99Z" style="fill:#0d0b10;"/><path d="m389.75,303.67c-9.37-1.74-19.68-4.23-25.1-6.82-8.36-4-17.74-5.96-26.58-6.09-14.31-.22-27.24,4.37-32.27,12.91-.04.06-.07.12-.1.18l-.31-.17c1.61-6.39,3.37-12.33,5.25-17.84,21.96-17.36,50.25-10.14,61.68-6.11,2.73,1.45,5.61,2.79,8.47,3.98,8.9,5.05,18.66,9.15,31.54,10.43,2.74.27,8.75,1.8,10.07,3.71.24.36.33.73.19,1.11-.4,1.14-4.48,7.15-14.52,7.15-3.02,0-10.33-.95-18.32-2.44Z" style="fill:#b7b1bb;"/><path d="m398.41,289.17c29.04,4,23.99,8.68,23.99,8.68-1.32-1.91-7.33-3.44-10.07-3.71-12.88-1.28-22.64-5.38-31.54-10.43,6.94,2.89,13.7,4.92,17.62,5.46Z" style="fill:#0d0b10;"/><path d="m362.38,120.38c-.12-.41-1.41-7.25,31.14-39.25,0,0,9.32-2.62,7.12,5.6-.79,2.99-9.26,31.96-11.03,62.37-.09,1.62.16,2.94.68,4.09-3.29-2.9-10.33-8.53-23.68-17.07-2.1-1.35-4.41-6.63-6.18-9.58-.19-.3-.37-.58-.54-.83-4.81-6.93-7.68-20.72-10.19-51.73,2.51,13.09,7.41,36.31,12.39,46.48l.29-.08Z" style="fill:#dcdad8;"/><path d="m389.75,303.67c-32.42-.68-48.45,20.31-55.76,35.4-10.2-14.95-1.06-37.88,4.08-48.31,8.84.13,18.22,2.09,26.58,6.09,5.42,2.59,15.73,5.08,25.1,6.82Z" style="fill:#544e59;"/><path d="m377.45,281.77c1.1.66,2.21,1.31,3.34,1.94-2.86-1.19-5.74-2.53-8.47-3.98,2.96,1.05,4.79,1.88,5.09,2.02.01,0,.03.01.04.02Z" style="fill:#cdc7d3;"/><path d="m360.43,126.54l-2.13,1.24c-21.98-9.87-14.89-42.93-14.89-42.93-17.05,40.14.03,61.59.85,62.57,0,.03.02.04.02.04-13.53-7.2-7.42-7.85-14.84-12.87-7.41-5.02-33.09,19.64-33.09,19.64,8.42-16.27,23.27-43.35,27.42-40.58,0,0,8.25-13.75,15.12-27.01,3.86-7.43,7.28-14.7,8.56-19.32.31-1.08.49-2,.54-2.76,0,0,.63,3.76,1.71,9.42,2.51,31.01,5.38,44.8,10.19,51.73.17.25.35.53.54.83Z" style="fill:#0f101d;"/><path d="m308.06,423.08c-2.81-13.88,8.36-37.08,8.36-37.08-4.13,15.89,2.3,38.98,12.12,52.13,5.6,7.49,23.03,12.64,28.37,20.02,11.53,4.59-5.7,21.32-8.86,24.46-.26.13-.51.26-.76.39l-.03-.06c-.97-.41-2.5-.32-3.44-.75-7.42-3.4-13.77-7.29-19.18-11.54-15.57-12.21-23.42-27.33-26.96-42.08h.01c2.5,5.77,7.62,9,7.62,9,0,0,6.47,8.58,0-1.23-5.14-7.81-2.85-25.93-1.69-33.02-.33,7.2,4.17,19.05,4.44,19.76Z" style="fill:#2a3754;"/><path d="m348.05,482.61c.43-.22-.29.3,0,0h0Z" style="fill:#924d21;"/><path d="m171.4,223.59c6.58-2.88,12.21-3.14,16.85-2.09-.58.33-21.22,12.02-29.21,18.98l.12.35c-6.89,2.33-13.66,4.73-14.06,4.87.84-.82,27.65-26.95,39.25-44.34,11.79-17.68,39.96-87.22,112.59-91.64l50.36-44.55.69-.61c-.05.76-.23,1.68-.54,2.76-1.28,4.62-4.7,11.89-8.56,19.32,0,0-27.23,23.95-33.5,27.44s-14.13,5.24-19.8,8.29c-5.67,3.06-9.6,13.53-9.6,13.53,0,0,2.29,14.39,10.26,25.33-23.08-24.34-42.33-5.47-42.33-5.47,32.72-6.33,32.72,46.25,32.72,46.25-19.07-28.04-31.94-31.73-43.01-26.33l-.02.02c-8.31,4.05-15.6,13.22-23.73,21.07-16.01,15.47-33.43,24.4-38.48,26.82Zm-1.08.5c.1-.04.22-.1.35-.16-.12.04-.23.1-.35.16Z" style="fill:#efebee;"/><path d="m269.56,437.9c-.05-.06-.19-.17-.41-.33-7.56-5.52-9.6-42.47-9.6-42.47l14.55,5.82c-56.44-42.47-26.76-112.87-25.31-126.55,0,0,5.62,37.97,31.24,68.37h.01c4.42,13.75,11.06,24.12,20.82,28.14,0,0-10.28,28.09-3.18,57.69,3.54,14.75,11.39,29.87,26.96,42.08,5.41,4.25,11.76,8.14,19.18,11.54.94.43,2.47.34,3.44.75l.03.06c-6.68,3.47-11.62,7.72-16.25,10.61l-.29.08h0c-39.37-10.26-60.54-53.92-61.55-56.04.2.14.32.23.37.25Z" style="fill:#1c2644;"/><path d="m343.41,84.85c-11.53,33.63.34,61.4.85,62.57-.82-.98-17.9-22.43-.85-62.57Z" style="fill:#efebee;"/><path d="m305.8,303.67c5.03-8.54,17.96-13.13,32.27-12.91-5.14,10.43-14.28,33.36-4.08,48.31-3.53,7.27-5.03,13.17-5.37,14.63-14.62-18.02-13.14-36.06-13.14-36.06-4.82.64-9.8,8.65-9.8,8.65-5.95-7.2-1.25-19.58-1.25-19.58.32-.99.74-1.95,1.27-2.86.03-.06.06-.12.1-.18Z" style="fill:#10152e;"/><path d="m338.89,86.64c-6.87,13.26-15.12,27.01-15.12,27.01-4.15-2.77-19,24.31-27.42,40.58-3.55,6.85-5.96,11.78-5.96,11.78-1.39-1.75-2.77-3.35-4.14-4.78-7.97-10.94-10.26-25.33-10.26-25.33,0,0,3.93-10.47,9.6-13.53,5.67-3.05,13.53-4.8,19.8-8.29s33.5-27.44,33.5-27.44Z" style="fill:#cdc9cf;"/><path d="m330.74,493.69c-4.96,3.11-10.71,5.47-21.37,6.14-8.45.53-40.25-11.36-69.63-37.61-2.08-2.48-26.83-32.64-23.76-37.11,0,0,17.97,23.37,32.65,31.34,0,0-31.28-35.66-33.24-47.96,0,0,23.16,26.54,37.62,34,0,0-38.24-36.3-36.79-62.23,0,0,26,45.39,45.58,51.37,3.8,3.36,6.48,5.38,7.39,6.02,1.01,2.12,22.18,45.78,61.55,56.04Z" style="fill:#2a3754;"/><path d="m239.74,462.22c29.38,26.25,61.18,38.14,69.63,37.61,0,0-7.56,1.88-20.16,3.32-118.12-40.76-121.87-123.84-121.87-123.84,2.61-4.45,33.78,33.37,33.78,33.37,10.22,20.16,24.12,36.6,38.62,49.54Z" style="fill:#c4bfc4;"/><path d="m304.13,400.42c-.03.18-.24,1.24-.51,2.9.05-1.09.21-2.08.51-2.9Z" style="fill:#4e5174;"/><path d="m301.04,524.26s24.04,5.24,0,11.64c-24.03,6.4-71.64-8.14-71.64-8.14,0,0-18.47-8.14-24.06-12.95,3.16,2.16,18.92,8.49,95.7,9.45Z" style="fill:#736368;"/><path d="m280.04,342.74h-.01c-25.62-30.4-31.24-68.37-31.24-68.37,1.45-13.67-35.78-60.21-36.95-68.07-1.14-7.73,21.1-29.93,21.77-30.6l.02-.02c11.07-5.4,23.94-1.71,43.01,26.33,0,0-12.37,91.77,3.4,140.73Z" style="fill:#787593;"/><path d="m289.21,503.15c-7.37.84-16.46,1.54-26.78,1.63-104.26-26.03-109.06-114.48-109.06-114.48-4.8-2.18-11.56,9.38-11.56,9.38h-33.38l61.52-47.12-.06-13.24.06-3.78-5.23,5.31-8.51,7.12,5.41-34.13s30.83-51.65,43.51-67.22h.01c2.42-.88,3.43-.91,3.43-.91-18.15,38.79-24.8,72.71-23.86,102.04-.05,4.74.25,9.31,1,13.6,2.24,19.24,7.81,36.32,15.41,51.33,0,0-31.17-37.82-33.78-33.37,0,0,3.75,83.08,121.87,123.84Z" style="fill:#968b95;"/><path d="m205.14,246.62h-.01c-3.49,1.28-9.93,4.34-20.51,11.68,0,0,10.86-24.12,20.02-24.82,0,0-5.53-9.54-16.38-11.98h-.01c-4.64-1.05-10.27-.79-16.85,2.09,5.05-2.42,22.47-11.35,38.48-26.82,8.13-7.85,15.42-17.02,23.73-21.07-.67.67-22.91,22.87-21.77,30.6,1.17,7.86,38.4,54.4,36.95,68.07-1.45,13.68-31.13,84.08,25.31,126.55l-14.55-5.82s2.04,36.95,9.6,42.47c0,0,0,.03.04.08-.91-.64-3.59-2.66-7.39-6.02-20.73-18.31-74.75-76.31-55.63-165.93,0,0-21.1,45.72-21.46,82.05-.94-29.33,5.71-63.25,23.86-102.04,0,0-1.01.03-3.43.91Z" style="fill:#5d5a78;"/><path d="m262.43,504.78c-32.81.28-77.97-5.59-119.31-32.44l4.58-21.6h-41.89l36-51.06s6.76-11.56,11.56-9.38c0,0,4.8,88.45,109.06,114.48Z" style="fill:#776d77;"/><path d="m206.17,265.7c-19.12,89.62,34.9,147.62,55.63,165.93-19.58-5.98-45.58-51.37-45.58-51.37-1.45,25.93,36.79,62.23,36.79,62.23-14.46-7.46-37.62-34-37.62-34,1.96,12.3,33.24,47.96,33.24,47.96-14.68-7.97-32.65-31.34-32.65-31.34-3.07,4.47,21.68,34.63,23.76,37.11-14.5-12.94-28.4-29.38-38.62-49.54-7.6-15.01-13.17-32.09-15.41-51.33-.52-4.42-.85-8.95-1-13.6.36-36.33,21.46-82.05,21.46-82.05Z" style="fill:#1c2644;"/><path d="m188.26,221.5c10.85,2.44,16.38,11.98,16.38,11.98-9.16.7-20.02,24.82-20.02,24.82,10.58-7.34,17.02-10.4,20.51-11.68-12.68,15.57-43.51,67.22-43.51,67.22l3.1-19.54-20.29,28.2s7.85-49.41,13.09-56.8c.45-.64.58-.97.43-1.05,4.92-10.61,25.84-23.6,22.04-23.99-3.93-.41-13.51,0-13.51,0,1.2-.82,2.36-1.49,3.47-2,10.07-4.65-.49-1.32-10.79,2.17l-.12-.35c7.99-6.96,28.63-18.65,29.21-18.98h.01Z" style="fill:#b7b1bb;"/><path d="m179.99,240.66c3.8.39-17.12,13.38-22.04,23.99-1.54-.83-32.82,26.18-33.79,27.01.64-1.02,25.37-39.59,42.32-51,0,0,9.58-.41,13.51,0Z" style="fill:#e0d5d4;"/><path d="m281.67,516.81s12.64,1.01,19.15,1.21c6.51.21,17.55,2.22,28.09,6.74l17.26,6.46c-.24-.02-20.8,5.07-64.5-14.41Z" style="fill:#b3aab9;"/><path d="m192.36,210.9s33.02-82.42,72.87-71.21c0,0-35.22,8.73-30.48,27.49,0,0,22.93-6.96,27.83,5.89,0,0-9.61-13.64-32.53,4.69-10.36,8.29-19.73,21.88-37.69,33.14Z" style="fill:#cdc9cf;"/><path d="m367.3,136.56s-1.74-27.84,27.71-49.92c0,0-24.66,24.4-27.71,49.92Z" style="fill:#efebee;"/><path d="m427.41,451.6c2.97.53,15.16-.46,57.11-29.5,0,0,16.02-5.09,6.8,9.44-9.21,14.53-43.38,21.22-43.38,21.22,0,0-14.72.57-20.54-1.16Z" style="fill:#b3aab9;"/><path d="m409.04,276.81c0,.11-.04.22-.12.33-2.4-.57-4.67-1.16-6.82-1.77.19-.55.45-1.16.8-1.85,0,0,6.09,1.96,6.14,3.29Z" style="fill:#9e9197;"/><path d="m408.34,279.46s2.4.66-.36,6.18c0,0-6.1-1.97-6.14-3.3s6.5-2.88,6.5-2.88Z" style="fill:#efebee;"/><path d="m402.1,275.37c2.15.61,4.42,1.2,6.82,1.77-.87,1.25-6.38,2.55-6.38,2.55,0,0-1.84-.51-.44-4.32Z" style="fill:#efebee;"/><path d="m399.56,270.43s2.05.36,1.99,1.42c-.02.4-.41,1.67-.82,3.12-1.41-.4-2.76-.82-4.06-1.25,1.58-3.86,2.89-3.29,2.89-3.29Z" style="fill:#9e9197;"/><path d="m400.73,274.97c-.68,2.41-1.43,5.32-.73,5.66,0,0-6.33,3.16-4.33-3.93.34-1.21.67-2.19,1-2.98,1.3.43,2.65.85,4.06,1.25Z" style="fill:#efebee;"/><path d="m393.1,266.08s2.01,1.01,3.38,2.6c0,0-1.47,2.17-2.02,4.32-1.8-.62-3.49-1.25-5.08-1.89,3.03-4.86,3.72-5.03,3.72-5.03Z" style="fill:#9e9197;"/><path d="m394.34,275.12c.52,2.5-2.03,4.56-2.03,4.56,0,0-8.17.12-4.12-6.63.43-.72.83-1.36,1.19-1.94,1.59.64,3.28,1.27,5.08,1.89-.18.74-.25,1.48-.12,2.12Z" style="fill:#efebee;"/><path d="m391.81,263.61c.1.61-1.7,4.11-3.59,7.04-2.87-1.18-5.39-2.37-7.6-3.57,1.16-2.34,3.5-4.67,7.73-6.8,0,0,3.28,2.26,3.46,3.33Z" style="fill:#9e9197;"/><path d="m386.72,259.2c.4,1.53-5.55,3.29-5.55,3.29,0,0-1.49-3.64,2.19-6.25,0,0,2.97,1.43,3.36,2.96Z" style="fill:#9e9197;"/><path d="m388.22,270.65c-1.48,2.28-3.02,4.21-3.76,4.13-1.69-.2-4.67.77-4.81-3.05-.06-1.52.19-3.09.97-4.65,2.21,1.2,4.73,2.39,7.6,3.57Z" style="fill:#efebee;"/><path d="m382.63,255.59s-2.42-.22-3.81,10.49c-2.82-1.64-5.08-3.26-6.89-4.83l5.14-8.49s4.44,1.16,5.56,2.83Z" style="fill:#9e9197;"/><path d="m378.82,266.08c-.19,1.51-.37,3.23-.51,5.2,0,0-6.03-.9-7.09-8.86l.71-1.17c1.81,1.57,4.07,3.19,6.89,4.83Z" style="fill:#efebee;"/><path d="m370.15,254.47c1.76,2.69,1.48,4.56.67,5.78-1.28-1.21-2.29-2.37-3.08-3.47,1.42-3.04,2.41-2.31,2.41-2.31Z" style="fill:#9e9197;"/><path d="m370.82,260.25c-.93,1.43-2.58,1.99-2.58,1.99-1.62-1.93-.72-4.98-.72-4.98.07-.17.15-.33.22-.48.79,1.1,1.8,2.26,3.08,3.47Z" style="fill:#efebee;"/><path d="m393.44,192.98s-18.36-14.19-31.66-15.57c0,0,4.37,17.19,18.08,23.56,13.71,6.37,13.58-7.99,13.58-7.99Z" style="fill:#1c2644;"/><path d="m395.89,195.13s-20.84-23-55.09-29.68c0,0,24.11,12.33,24.65,15.93" style="fill:#1c2644;"/><path d="m389.94,192.18c.65,2.65-.13,4.62-1.56,6.11-2.47-4.87-.23-7.52-.13-7.64,1.01.86,1.69,1.54,1.69,1.54Z" style="fill:#0f101d;"/><path d="m383.48,187.3h0c.23.12.46.25.68.36,1.45.8,2.98,2.01,4.09,2.98-.11.12-2.35,2.77.13,7.64-.85.91-1.95,1.64-3.1,2.25-.14.07-.53,0-1.08-.15.35-2.48-5.5-9.53-5.32-12.14.01-.29.1-.52.28-.69,1.37-1.33,4-.39,4.33-.27Z" style="fill:#f6921e;"/><path d="m384.2,200.39c-.63-.17-1.49-.47-2.39-.81-4.05-1.52-7.51-4.31-9.83-7.96-3.5-5.51-3.84-10.5-3.84-10.5,8.86,3.01,10.74,7.14,10.74,7.14h0c-.18,2.61,5.68,9.66,5.32,12.14Z" style="fill:#efebee;"/><path d="m383.48,187.3h0c-.33-.12-2.96-1.06-4.33.27-.17.17-.26.4-.28.69h0s-1.88-4.13-10.74-7.14c4.25.37,10.49,3.63,14.46,5.72.3.16.6.32.89.47Z" style="fill:#b3a5ad;"/><rect width="600" height="600" style="fill:none;"/></svg>